<?xml version="1.0" encoding="utf-8"?>
<!-- Generator: Adobe Illustrator 18.1.1, SVG Export Plug-In . SVG Version: 6.00 Build 0)  -->
<svg version="1.1" id="Layer_1" xmlns="http://www.w3.org/2000/svg" xmlns:xlink="http://www.w3.org/1999/xlink" x="0px" y="0px"
     viewBox="60 48.3 129.5 23.2" enable-background="new 60 48.3 129.5 23.2" xml:space="preserve">
<g>
    <path d="M60,48.3h2.9v9.6h11.5v-9.6h2.9V71h-2.9V60.6H62.9V71H60V48.3z" fill="#fff"/>
    <path d="M96.2,66.4c-0.3,1.6-1,2.8-2.1,3.7s-2.8,1.4-4.9,1.4c-1.3,0-2.5-0.2-3.5-0.6c-1-0.4-1.8-1-2.4-1.8
        c-0.6-0.8-1.1-1.7-1.4-2.7c-0.3-1.1-0.5-2.2-0.5-3.5h2.8v0.3c0,1.8,0.4,3.3,1.3,4.5s2.1,1.7,3.7,1.7c1.4,0,2.4-0.3,3-0.8
        c0.6-0.5,1.1-1.2,1.3-2.1C93.5,66.4,96.2,66.4,96.2,66.4z M89.2,54c1.3,0,2.4,0.2,3.3,0.6c0.9,0.4,1.7,0.9,2.2,1.7s1,1.6,1.3,2.5
        c0.3,1,0.4,2.1,0.4,3.2v0.8H84.2v-2.1h-2.7c0.4-2.2,1.3-3.8,2.7-5C85.5,54.6,87.2,54,89.2,54z M93.7,60.8c-0.1-0.7-0.2-1.3-0.4-1.8
        c-0.2-0.6-0.4-1.1-0.8-1.5c-0.4-0.4-0.8-0.7-1.4-1s-1.2-0.3-2-0.3c-1.5,0-2.6,0.4-3.4,1.3c-0.8,0.9-1.3,2-1.5,3.3
        C84.2,60.8,93.7,60.8,93.7,60.8z" fill="#fff"/>
    <path d="M100.1,56.6h2.8V71h-2.8V56.6z M107.7,54.3v2.3h-4.9v-2.3H107.7z" fill="#fff"/>
    <path d="M125,66.4c-0.3,1.6-1,2.8-2.1,3.7s-2.8,1.4-4.9,1.4c-1.3,0-2.5-0.2-3.5-0.6c-1-0.4-1.8-1-2.4-1.8c-0.6-0.8-1.1-1.7-1.4-2.7
        c-0.3-1.1-0.5-2.2-0.5-3.5h2.8v0.3c0,1.8,0.4,3.3,1.3,4.5s2.1,1.7,3.7,1.7c1.4,0,2.4-0.3,3-0.8s1.1-1.2,1.3-2.1
        C122.3,66.4,125,66.4,125,66.4z M118,54c1.3,0,2.4,0.2,3.3,0.6c0.9,0.4,1.7,0.9,2.2,1.7c0.6,0.7,1,1.6,1.3,2.5
        c0.3,1,0.4,2.1,0.4,3.2v0.8h-12.2v-2.1h-2.7c0.4-2.2,1.3-3.8,2.7-5C114.3,54.6,116,54,118,54z M122.5,60.8
        c-0.1-0.7-0.2-1.3-0.4-1.8c-0.2-0.6-0.4-1.1-0.8-1.5c-0.4-0.4-0.8-0.7-1.4-1c-0.6-0.2-1.2-0.3-2-0.3c-1.5,0-2.6,0.4-3.4,1.3
        c-0.8,0.9-1.3,2-1.5,3.3C113.1,60.8,122.5,60.8,122.5,60.8z" fill="#fff"/>
    <path d="M129.3,48.3H144v2.6h-11.8V58h11.1v2.6h-11.1v7.8h12.4V71h-15.3V48.3z" fill="#fff"/>
    <path d="M158,62.8h2.7V71H158v-2.3c-0.6,0.7-1.4,1.3-2.3,1.9c-0.9,0.5-2,0.8-3.4,0.8c-1.7,0-3-0.4-4.1-1.2s-1.6-2-1.6-3.7
        c0-1.1,0.2-2,0.7-2.7s1.1-1.3,1.9-1.7c0.8-0.4,1.7-0.7,2.7-0.9c1-0.2,2-0.3,3.1-0.3l2.8-0.1V62.8z M158,60.1c0-1.4-0.3-2.4-0.9-3
        c-0.6-0.6-1.6-0.9-2.9-0.9c-1.3,0-2.3,0.2-2.9,0.7c-0.6,0.4-1,1-1.2,1.8h-2.5c0.2-1.7,0.9-2.8,2.1-3.5s2.7-1.1,4.6-1.1
        c1.2,0,2.2,0.1,3,0.4c0.8,0.3,1.5,0.7,2,1.2c0.5,0.5,0.9,1.2,1.1,2c0.2,0.8,0.3,1.7,0.3,2.6v0.5H158C158,60.8,158,60.1,158,60.1z
         M158,62.8l-2.6,0.1c-1.1,0-2,0.1-2.7,0.3c-0.7,0.2-1.3,0.4-1.8,0.7c-0.4,0.3-0.8,0.6-1,1s-0.3,0.9-0.3,1.5c0,0.8,0.3,1.4,0.7,1.9
        c0.5,0.5,1.3,0.7,2.5,0.7c1.7,0,2.9-0.4,3.8-1.2c0.9-0.8,1.4-1.9,1.4-3.3C158,64.6,158,62.8,158,62.8z" fill="#fff"/>
    <path d="M166.7,66.2c0.2,1.1,0.7,1.9,1.4,2.4s1.8,0.7,3.2,0.7c1.4,0,2.4-0.2,3-0.7c0.6-0.5,0.9-1.1,0.9-1.9c0-0.7-0.2-1.2-0.6-1.7
        s-1.2-0.8-2.3-1l-2.1-0.3c-1.8-0.3-3.3-0.8-4.2-1.5c-1-0.7-1.5-1.8-1.5-3.3c0-0.8,0.2-1.4,0.5-2c0.3-0.6,0.8-1.1,1.4-1.5
        c0.6-0.4,1.3-0.7,2.1-1c0.8-0.2,1.7-0.3,2.6-0.3c1.2,0,2.2,0.1,3,0.4c0.8,0.3,1.5,0.6,2,1c0.5,0.4,0.9,1,1.2,1.5
        c0.3,0.6,0.4,1.2,0.5,1.9h-2.5c-0.1-0.4-0.3-0.8-0.5-1.1c-0.2-0.3-0.4-0.6-0.8-0.8c-0.3-0.2-0.7-0.4-1.2-0.5s-1-0.2-1.7-0.2
        c-0.8,0-1.4,0.1-1.9,0.2c-0.5,0.1-0.9,0.3-1.2,0.6c-0.3,0.2-0.5,0.5-0.7,0.8c-0.1,0.3-0.2,0.6-0.2,0.9c0,0.3,0,0.6,0.1,0.9
        c0.1,0.3,0.2,0.5,0.5,0.7s0.6,0.4,1,0.5c0.4,0.1,0.9,0.3,1.6,0.4l2.4,0.4c1.9,0.3,3.3,0.9,4.1,1.7c0.8,0.8,1.3,1.9,1.3,3.4
        c0,0.7-0.1,1.3-0.4,1.9c-0.3,0.6-0.7,1.1-1.2,1.5c-0.6,0.4-1.2,0.8-2.1,1c-0.8,0.2-1.8,0.4-2.9,0.4c-1,0-1.9-0.1-2.8-0.3
        c-0.9-0.2-1.6-0.5-2.3-0.9c-0.7-0.4-1.2-1-1.6-1.6c-0.4-0.7-0.6-1.5-0.7-2.5C164,66.2,166.7,66.2,166.7,66.2z" fill="#fff"/>
    <path d="M185.2,54.6h-2.8v-4.5h2.8V54.6z M182.4,69V56.7h2.8V69C185.2,69,182.4,69,182.4,69z M189.5,54.6v2.2h-4.4v-2.2H189.5z
         M189.5,69v2.3h-4.4V69H189.5z" fill="#fff"/>
</g>
</svg>
