<?xml version="1.0" encoding="utf-8"?>
<!-- Generator: Adobe Illustrator 21.0.2, SVG Export Plug-In . SVG Version: 6.00 Build 0)  -->
<svg version="1.1" id="Layer_1" xmlns="http://www.w3.org/2000/svg" xmlns:xlink="http://www.w3.org/1999/xlink" x="0px" y="0px"
	 viewBox="0 0 706.3 420.1" style="enable-background:new 0 0 706.3 420.1;" xml:space="preserve">
<style type="text/css">
	.st0{fill:#434343;}
	.st1{fill:none;stroke:#434343;stroke-width:3;stroke-miterlimit:10;stroke-dasharray:4;}
	.st2{fill:none;stroke:#434343;stroke-width:3;stroke-miterlimit:10;}
	.st3{fill:none;stroke:#434343;stroke-width:3;stroke-miterlimit:10;stroke-dasharray:3.863,3.863;}
	.st4{fill:none;stroke:#434343;stroke-width:3;stroke-miterlimit:10;stroke-dasharray:4.0104,4.0104;}
	.st5{fill:none;stroke:#434343;stroke-width:3;stroke-miterlimit:10;stroke-dasharray:3.9777,3.9777;}
	.st6{fill:#7A7A7A;}
	.st7{fill:#FFFFFF;}
	.st8{fill:none;}
	.st9{font-family:'ArialMT';}
	.st10{font-size:18px;}
	.st11{font-size:15px;}
	.st12{font-family:'Arial-BoldMT';}
	.st13{font-size:21px;}
</style>
<g>
	<g>
		<path class="st0" d="M643.3,247.2c-4.2,0-7.7,3.5-7.7,7.7c0,4.2,3.5,7.7,7.7,7.7s7.7-3.5,7.7-7.7S647.5,247.2,643.3,247.2z
			 M643.3,259.7c-2.7,0-4.8-2.2-4.8-4.8c0-2.7,2.2-4.9,4.8-4.9s4.8,2.2,4.8,4.9S646,259.7,643.3,259.7z"/>
		<rect x="633.9" y="253.3" class="st0" width="18.8" height="3.2"/>
	</g>
	<path class="st0" d="M617.3,256.3h-4.8v2h4.9l5.1,3.2h3.4l-5.1-3.2h8.9v-2h-8.9l4.4-2.7h4.5v-2h-4.9l-5.1-3.2h-3.4l5.1,3.2h-8.9v2
		h9.2L617.3,256.3z"/>
	<rect x="593.5" y="250.4" class="st0" width="8.9" height="8.9"/>
</g>
<rect x="564.8" y="343.2" class="st0" width="8.9" height="8.9"/>
<path class="st1" d="M214.4,219.1c-1.4-0.7-1.8-1.1-3.1-3.3c0,0-24.6-46.3-25.6-47.6c-1-1.3-9.4-6.5-15.4-1.5
	c-1.9,1.6-13.7,9.9-13.7,9.9"/>
<g>
	<g>
		<path class="st2" d="M126.4,142.9c0,0-0.4-0.6-1.2-1.6"/>
		<path class="st3" d="M123,138.1c-3.8-5.5-9.7-13.9-10.5-15.8c-1.3-2.8-2-6.1,2.5-9.6c3.9-3.1,48-37.3,60.2-46.8"/>
		<path class="st2" d="M176.7,64.7c1-0.8,1.6-1.2,1.6-1.2"/>
	</g>
</g>
<g>
	<g>
		<path class="st2" d="M563.8,342.2c0,0-0.5-0.5-1.4-1.4"/>
		<path class="st4" d="M559.6,338c-5.6-5.6-15.4-15.4-21.7-21.3c-9.1-8.6-18.2-12.6-25.3-15.9c-7.1-3.3-19.5-9.1-30.6-11.6
			s-55.9-8.6-55.9-8.6s-83,2.5-86.5,2.5s-10.1-1.5-11.6-2.5s-15.2-15.2-15.2-15.2L276.1,193"/>
		<path class="st2" d="M275.2,191.2l-0.9-1.8c0,0-0.6,0.3-1.7,1"/>
		<path class="st5" d="M269.1,192.3c-15.7,8.8-61.9,34.5-65.7,37.1c-4.6,3-8.9,3.8-11.7,0L140,162.5"/>
		<line class="st2" x1="138.9" y1="160.9" x2="137.6" y2="159.3"/>
	</g>
</g>
<rect x="127.9" y="146.6" class="st0" width="8.9" height="8.9"/>
<path class="st1" d="M583.3,270.2l-42.4-1l-12.3,6.1c0,0-4.3,16.9-5.8,20.5c-0.7,1.7-2.7,2.9-5.1,3.6"/>
<polyline class="st1" points="221.8,222.7 235,246.6 232.1,249.6 228.8,251.3 185.2,269.5 173.8,270.4 158.2,273.2 127.4,277 
	118.4,280.5 120.3,284.6 108.1,314.7 106.8,321.5 "/>
<g>
	<g>
		<path class="st0" d="M131.8,340c-4.2,0-7.7,3.5-7.7,7.7c0,4.3,3.5,7.7,7.7,7.7s7.7-3.5,7.7-7.7C139.5,343.4,136.1,340,131.8,340z
			 M131.9,352.5c-2.7,0-4.8-2.2-4.8-4.8c0-2.7,2.2-4.9,4.8-4.9s4.8,2.2,4.8,4.9S134.5,352.5,131.9,352.5z"/>
		<rect x="122.4" y="346.1" class="st0" width="18.8" height="3.2"/>
	</g>
	<path class="st0" d="M105.9,349.1h-4.8v2h4.9l5.1,3.2h3.4l-5.1-3.2h8.9v-2h-8.9l4.4-2.7h4.5v-2h-4.9l-5.1-3.2h-3.4l5.1,3.2h-8.9v2
		h9.2L105.9,349.1z"/>
	<rect x="101.2" y="323.3" class="st0" width="8.9" height="8.9"/>
</g>
<rect x="186.6" y="340" class="st0" width="8.9" height="8.9"/>
<rect x="263.4" y="273.8" class="st0" width="8.9" height="8.9"/>
<rect x="181.3" y="54.2" class="st0" width="8.9" height="8.9"/>
<g>
	
		<rect x="181.9" y="75.6" transform="matrix(0.8828 -0.4697 0.4697 0.8828 -38.355 113.2912)" class="st6" width="52" height="115.8"/>
	
		<rect x="136.2" y="106" transform="matrix(0.7913 -0.6114 0.6114 0.7913 -54.2023 119.2089)" class="st6" width="22.7" height="66"/>
	
		<rect x="145.2" y="98.3" transform="matrix(0.7913 -0.6114 0.6114 0.7913 -35.5654 115.1389)" class="st6" width="11.4" height="22.8"/>
	
		<rect x="145.6" y="120.6" transform="matrix(0.7913 -0.6114 0.6114 0.7913 -42.9991 117.9611)" class="st6" width="11.4" height="2.8"/>
	
		<rect x="150.6" y="99" transform="matrix(0.7913 -0.6114 0.6114 0.7913 -28.7762 116.5045)" class="st6" width="11.4" height="2.8"/>
	<g>
		<path class="st7" d="M182.2,88.5l1.1,2.1l-6.9,3.6l4.4,8.2l6.9-3.6l1.1,2.1l-16.2,8.6l-1.1-2.1l7.4-4l-4.4-8.2l-7.4,4l-1.1-2.1
			L182.2,88.5z"/>
		<path class="st7" d="M183.1,121.2c-1.3,0.4-2.4,0.3-3.4-0.1c-1.1-0.4-2.1-1.5-2.9-3c-0.5-0.9-0.8-1.9-0.9-2.7
			c-0.1-0.9,0-1.7,0.4-2.4c0.3-0.7,0.8-1.4,1.4-2c0.7-0.6,1.4-1.2,2.3-1.7l1.1,2l-0.2,0.1c-1.3,0.7-2.2,1.5-2.7,2.6
			s-0.4,2.1,0.2,3.3c0.5,1,1.1,1.6,1.7,1.8c0.6,0.2,1.3,0.3,2,0.1C182,119.3,183.1,121.2,183.1,121.2z M189.3,111.5
			c0.5,0.9,0.8,1.8,0.8,2.6c0.1,0.8,0,1.6-0.4,2.2c-0.4,0.7-0.8,1.3-1.3,1.9c-0.6,0.6-1.3,1.1-2.1,1.5l-0.6,0.3l-4.6-8.7l1.5-0.8
			l-1-1.9c1.7-0.6,3.2-0.5,4.6,0C187.4,109.1,188.5,110.1,189.3,111.5z M186.1,117.3c0.5-0.3,0.9-0.6,1.1-1c0.4-0.4,0.6-0.7,0.8-1.1
			c0.1-0.4,0.2-0.8,0.2-1.4c0-0.5-0.2-1-0.5-1.5c-0.6-1.1-1.3-1.7-2.2-1.9c-0.9-0.2-1.9-0.2-2.9,0.2
			C182.5,110.5,186.1,117.3,186.1,117.3z"/>
		<path class="st7" d="M191.5,120.3l1.1,2l-10.3,5.5l-1.1-2L191.5,120.3z M196.1,124.8l-1.6,0.9l-1.9-3.5l1.6-0.9L196.1,124.8z"/>
		<path class="st7" d="M194,141.8c-1.3,0.4-2.4,0.3-3.4-0.1s-2.1-1.5-2.9-3c-0.5-0.9-0.8-1.9-0.9-2.7c-0.1-0.9,0-1.7,0.4-2.4
			c0.3-0.7,0.8-1.4,1.4-2c0.7-0.6,1.4-1.2,2.3-1.7l1.1,2l-0.2,0.1c-1.3,0.7-2.2,1.5-2.7,2.6s-0.4,2.1,0.2,3.3c0.5,1,1.1,1.6,1.7,1.8
			c0.6,0.2,1.3,0.3,2,0.1C193,139.8,194,141.8,194,141.8z M200.2,132.1c0.5,0.9,0.8,1.8,0.8,2.6c0.1,0.8,0,1.6-0.4,2.2
			c-0.3,0.7-0.8,1.3-1.3,1.9c-0.6,0.6-1.3,1.1-2.1,1.5l-0.6,0.3l-4.6-8.7l1.5-0.8l-1-1.9c1.7-0.6,3.2-0.5,4.6,0
			C198.4,129.6,199.4,130.6,200.2,132.1z M197.1,137.9c0.5-0.3,0.9-0.6,1.1-1c0.4-0.4,0.6-0.7,0.8-1.1c0.1-0.4,0.2-0.8,0.2-1.4
			c-0.1-0.5-0.2-1-0.5-1.5c-0.6-1.1-1.3-1.7-2.2-1.9s-1.9-0.2-2.9,0.2C193.5,131.1,197.1,137.9,197.1,137.9z"/>
		<path class="st7" d="M208.6,138l5.6,10.5l-1.9,1l-4.5-8.4l-5.1,2.7l4.2,7.9l-1.9,1l-4.2-7.9l-5.6,3l4.7,8.9l-1.9,1l-5.8-10.9
			L208.6,138L208.6,138z"/>
		<path class="st7" d="M209.1,164l1,1.9l-5.9,3.1l-1-1.9l1.6-0.9c-0.7-0.2-1.5-0.5-2.2-0.9c-0.7-0.5-1.3-1.1-1.9-2.1
			c-0.6-1.2-0.9-2.3-0.7-3.4c0.2-1.1,0.8-1.9,2-2.5c0.8-0.4,1.5-0.6,2.2-0.5s1.3,0.3,1.9,0.7c0.6,0.4,1.1,0.9,1.7,1.6
			c0.5,0.6,1,1.3,1.4,2.1l1.1,2l-1.4,0.8L209.1,164z M211,162.9c1-0.5,1.6-1.1,1.8-1.8s0-1.5-0.5-2.4s-1-1.6-1.6-1.8
			c-0.5-0.3-1.1-0.3-1.7-0.2l-0.9-1.8c1.3-0.5,2.3-0.4,3.3,0.2c1,0.6,1.8,1.5,2.5,2.9c0.5,0.9,0.8,1.6,0.9,2.3
			c0.1,0.7,0.1,1.3-0.1,1.9s-0.5,1.1-1,1.5s-1.1,0.9-1.7,1.2l-0.4,0.2l-1-1.9L211,162.9z M209.1,164l-1.1-1.8
			c-0.4-0.8-0.8-1.4-1.2-1.8c-0.4-0.4-0.8-0.8-1.2-1s-0.7-0.3-1.1-0.3c-0.4,0-0.8,0.1-1.2,0.4c-0.6,0.3-0.9,0.7-1.1,1.2
			c-0.2,0.5,0,1.2,0.5,2.1c0.6,1.2,1.4,1.9,2.3,2.3c0.9,0.3,1.9,0.3,2.9-0.3C207.8,164.7,209.1,164,209.1,164z"/>
		<path class="st7" d="M210,171.5c-0.7,0.6-1.1,1.2-1.2,1.9c-0.1,0.7,0.2,1.6,0.7,2.6s1.1,1.6,1.6,1.9s1.1,0.2,1.7-0.1
			c0.5-0.3,0.8-0.6,1-1.1s0.1-1.2-0.2-2l-0.6-1.6c-0.5-1.4-0.7-2.7-0.5-3.6c0.1-1,0.7-1.8,1.8-2.3c0.6-0.3,1.1-0.4,1.6-0.4
			s1.1,0.2,1.6,0.4c0.5,0.3,1,0.7,1.5,1.1c0.4,0.5,0.9,1.1,1.2,1.7c0.5,0.9,0.8,1.6,0.9,2.3c0.1,0.7,0.1,1.3,0,1.8s-0.4,1-0.6,1.4
			c-0.3,0.4-0.7,0.7-1.2,1.1l-0.9-1.8c0.2-0.2,0.5-0.5,0.6-0.8s0.3-0.5,0.3-0.9c0-0.3,0-0.7-0.1-1s-0.2-0.8-0.5-1.3
			c-0.3-0.6-0.6-1-0.9-1.3c-0.3-0.3-0.6-0.5-0.9-0.6c-0.3-0.1-0.5-0.2-0.8-0.2s-0.5,0.1-0.7,0.2s-0.4,0.2-0.6,0.4
			c-0.2,0.2-0.3,0.3-0.3,0.6s-0.1,0.6,0,0.9c0.1,0.3,0.1,0.8,0.3,1.3l0.6,1.9c0.5,1.5,0.6,2.7,0.3,3.6c-0.3,0.9-0.9,1.7-1.9,2.2
			c-0.5,0.3-1,0.4-1.5,0.4s-1.1-0.1-1.5-0.3c-0.5-0.3-1-0.6-1.5-1.1c-0.4-0.5-1-1.1-1.4-1.9c-0.4-0.7-0.7-1.4-0.8-2.1
			c-0.2-0.7-0.3-1.3-0.2-2c0-0.7,0.3-1.2,0.5-1.8c0.3-0.6,0.8-1,1.5-1.4C209,169.5,210,171.5,210,171.5z"/>
		<path class="st7" d="M225.3,180.3l-1.1-2l3.2-1.7l1.1,2L225.3,180.3z M214,183.7l8.8-4.7l1.1,2l-8.8,4.7L214,183.7z M226.9,183.3
			l-1.6,0.8l-1.7-3.1l1.6-0.8L226.9,183.3z M216.7,188.8l-1.6,0.9l-1.7-3.1l1.6-0.9L216.7,188.8z"/>
	</g>
</g>
<rect x="147.8" y="29.2" class="st8" width="136.5" height="62.2"/>
<text transform="matrix(1 0 0 1 177.2279 42.7266)" class="st9 st10">388 bus stop Q</text>
<text transform="matrix(1 0 0 1 204.5279 61.7266)" class="st9 st11">(2 mins walk)</text>
<rect x="101.1" y="364.7" class="st8" width="136.5" height="62.2"/>
<text transform="matrix(1 0 0 1 101.0547 378.2014)" class="st9 st10">Hackney Wick</text>
<text transform="matrix(1 0 0 1 101.0547 397.2014)" class="st9 st11">(5 mins walk)</text>
<rect x="593.5" y="268.1" class="st8" width="136.5" height="62.2"/>
<text transform="matrix(1 0 0 1 593.5432 281.585)" class="st9 st10">Stratford</text>
<text transform="matrix(1 0 0 1 593.5432 302.585)" class="st9 st10">International</text>
<rect x="582.7" y="341.2" class="st8" width="136.5" height="62.2"/>
<text transform="matrix(1 0 0 1 582.7448 354.7276)" class="st9 st10">Westfield</text>
<text transform="matrix(1 0 0 1 582.7448 375.7276)" class="st9 st10">Stratford City</text>
<text transform="matrix(1 0 0 1 582.7448 394.7276)" class="st9 st11">(15 mins walk)</text>
<rect x="353.1" y="146.2" class="st8" width="136.5" height="62.2"/>
<text transform="matrix(1 0 0 1 353.13 159.6824)" class="st9 st10">Queen Elizabeth</text>
<text transform="matrix(1 0 0 1 353.13 180.6824)" class="st9 st10">Olympic Park</text>
<rect x="514.5" y="50.7" class="st8" width="136.5" height="62.2"/>
<text transform="matrix(1 0 0 1 514.5165 64.2155)" class="st9 st10">Walking Route</text>
<rect x="204" y="337" class="st8" width="136.5" height="38.3"/>
<text transform="matrix(1 0 0 1 204.0432 350.4753)" class="st9 st10">The White Building</text>
<rect x="199" y="290" class="st8" width="136.5" height="38.3"/>
<text transform="matrix(1 0 0 1 226.3845 303.4536)" class="st9 st10">Copper Box</text>
<rect x="8.4" y="142.1" class="st8" width="136.5" height="38.3"/>
<text transform="matrix(1 0 0 1 18.3096 157.8726)" class="st12 st13">Canalside</text>
<line class="st1" x1="514.5" y1="36.1" x2="545.6" y2="36.1"/>
</svg>
